<svg xmlns="http://www.w3.org/2000/svg" viewBox="0 0 64 64" role="img" aria-label="EntreLinhas">
  <defs>
    <linearGradient id="star" x1="10" y1="52" x2="54" y2="10" gradientUnits="userSpaceOnUse">
      <stop stop-color="#8e3bff"/>
      <stop offset=".48" stop-color="#59c8ff"/>
      <stop offset="1" stop-color="#c4a4ff"/>
    </linearGradient>
    <filter id="glow" x="-35%" y="-35%" width="170%" height="170%">
      <feGaussianBlur stdDeviation="1.7" result="blur"/>
      <feMerge>
        <feMergeNode in="blur"/>
        <feMergeNode in="SourceGraphic"/>
      </feMerge>
    </filter>
  </defs>
  <circle cx="32" cy="32" r="30" fill="#08070d"/>
  <path filter="url(#glow)" d="M32 5 C35 22 39 28 59 32 C39 35 35 42 32 59 C29 42 25 35 5 32 C25 28 29 22 32 5Z" fill="url(#star)"/>
  <path d="M32 16 C34 26 37 30 49 32 C37 34 34 38 32 49 C30 38 27 34 15 32 C27 30 30 26 32 16Z" fill="#08070d" opacity=".94"/>
</svg>
