<svg xmlns="http://www.w3.org/2000/svg" viewBox="0 0 96 96" role="img" aria-labelledby="title desc">
  <title id="title">EntreLinhas</title>
  <desc id="desc">Símbolo minimalista com linhas, pontos e um brilho central.</desc>
  <defs>
    <linearGradient id="line" x1="16" y1="78" x2="80" y2="18" gradientUnits="userSpaceOnUse">
      <stop stop-color="#39d0ff"/>
      <stop offset=".48" stop-color="#9f7aea"/>
      <stop offset="1" stop-color="#f5d48b"/>
    </linearGradient>
    <radialGradient id="glow" cx="50%" cy="50%" r="50%">
      <stop offset="0" stop-color="#9f7aea" stop-opacity=".58"/>
      <stop offset="1" stop-color="#08070d" stop-opacity="0"/>
    </radialGradient>
  </defs>
  <circle cx="48" cy="48" r="43" fill="#08070d"/>
  <circle cx="48" cy="48" r="37" fill="url(#glow)" opacity=".52"/>
  <path d="M25 59c9-16 18-22 31-22 8 0 13-3 16-11" fill="none" stroke="url(#line)" stroke-width="3" stroke-linecap="round"/>
  <path d="M22 70h52" fill="none" stroke="#dbe6ff" stroke-opacity=".42" stroke-width="2" stroke-linecap="round"/>
  <path d="M30 48h18M48 48h18" fill="none" stroke="#dbe6ff" stroke-opacity=".62" stroke-width="2" stroke-linecap="round" stroke-dasharray="1 8"/>
  <circle cx="25" cy="59" r="4" fill="#39d0ff"/>
  <circle cx="56" cy="37" r="4" fill="#9f7aea"/>
  <circle cx="72" cy="26" r="3.5" fill="#f5d48b"/>
  <path d="M41 28l4 8 8 4-8 4-4 8-4-8-8-4 8-4 4-8z" fill="#f5f1ff" opacity=".92"/>
</svg>
